<?xml version="1.0" encoding="UTF-8" standalone="no"?>
<svg
   width="695.74536pt"
   height="695.74536pt"
   version="1.1"
   viewBox="0 0 695.74536 695.74536"
   id="svg143"
   sodipodi:docname="noun-books-137857.svg"
   inkscape:export-filename="../../../../../../home/rlacerda/books.png"
   inkscape:export-xdpi="96"
   inkscape:export-ydpi="96"
   xmlns:inkscape="http://www.inkscape.org/namespaces/inkscape"
   xmlns:sodipodi="http://sodipodi.sourceforge.net/DTD/sodipodi-0.dtd"
   xmlns="http://www.w3.org/2000/svg"
   xmlns:svg="http://www.w3.org/2000/svg">
  <sodipodi:namedview
     id="namedview145"
     pagecolor="#ffffff"
     bordercolor="#000000"
     borderopacity="0.25"
     inkscape:showpageshadow="2"
     inkscape:pageopacity="0.0"
     inkscape:pagecheckerboard="0"
     inkscape:deskcolor="#d1d1d1"
     inkscape:document-units="pt"
     showgrid="false" />
  <defs
     id="defs65" />
  <circle
     style="fill:#fcfcfc;fill-opacity:0.984314;stroke-width:7.57525"
     id="path520"
     cx="347.87271"
     cy="347.87271"
     r="347.87271" />
  <g
     id="g466"
     transform="matrix(1.1494778,0,0,1.1494778,-56.171004,26.018675)"
     style="fill:#222831;fill-opacity:1">
    <path
       d="m 601.77,255 c -0.69922,-2.7422 -2.9062,-4.8477 -5.6719,-5.4336 l -3.3867,-0.70703 v -47.383 l 5.5273,-4.7266 c 2.1836,-1.8594 3.0977,-4.8164 2.3477,-7.582 -0.75,-2.7656 -3.0312,-4.8555 -5.8516,-5.3633 l -31.051,-5.6328 0.0117,-39.895 -0.0117,-0.82422 5.7188,-4.8828 c 2.1797,-1.8633 3.0977,-4.8203 2.3477,-7.582 -0.75,-2.7734 -3.0312,-4.8594 -5.8516,-5.3711 l -250.98,-45.289 c -1.9492,-0.35938 -3.9492,0.08594 -5.5664,1.2148 l -194.48,135.63 c -3.6719,2.0352 -17.125,11.27 -16.871,36.938 0.28516,27.871 16.777,40.527 17.484,41.055 0.0937,0.0742 0.20312,0.11719 0.30078,0.18359 0.16797,0.11719 0.33594,0.22266 0.50781,0.32422 0.18359,0.10547 0.375,0.19531 0.57031,0.28516 0.17188,0.0859 0.34766,0.15625 0.53906,0.22266 0.21094,0.0781 0.42578,0.13281 0.64453,0.19141 0.125,0.0391 0.24219,0.0898 0.36328,0.11719 l 11.484,2.4062 c -1.8633,5.0664 -3.1289,11.418 -3.0469,19.398 0.14062,13.809 4.2578,23.879 8.4609,30.594 l -8.8984,6.1992 c -3.6953,2.0625 -17.125,11.312 -16.863,36.938 0.28125,27.871 16.766,40.555 17.488,41.055 0.62109,0.42578 1.8633,1.082 2.918,1.3203 l 263.28,55.242 c 0.0273,0.004 0.0547,0.0156 0.0859,0.0234 l 9.4023,1.9727 c 0.50391,0.10547 1.0195,0.15625 1.5234,0.15625 1.7461,0 3.4609,-0.62109 4.8164,-1.7734 l 173.04,-147.8 c 2.1562,-1.8438 3.0742,-4.75 2.375,-7.4883 -0.70703,-2.7422 -2.9062,-4.8477 -5.6797,-5.4336 l -3.0898,-0.64453 v -39.934 l 23.684,-20.227 c 2.1641,-1.8477 3.0859,-4.7539 2.3828,-7.4922 z m -210.23,27.164 c 1.7539,0 3.4648,-0.62109 4.8203,-1.7812 l 152.57,-130.32 v 47.188 l -158.76,135.03 v -50.262 c 0.46484,0.0859 0.91797,0.14453 1.375,0.14453 z m -265.17,-55.477 248.92,52.23 v 50.23 L 126.37,277.022 Z m 11.555,188.2 v -50.301 l 248.91,52.242 v 50.301 z m 17.414,-73.668 v -42.98 l 226.36,47.492 c 0.0273,0.004 0.0508,0.0156 0.0781,0.0234 l 9.4023,1.9727 c 0.50781,0.10547 1.0195,0.15625 1.5234,0.15625 1.7461,0 3.4648,-0.62109 4.8203,-1.7734 l 4.1172,-3.5234 2.4883,0.51953 v 50.281 z m 405.52,-6.3906 -159.09,135.44 -0.0508,-50.328 c 0.45312,0.0898 0.91406,0.14062 1.3711,0.14062 1.7461,0 3.4609,-0.61719 4.8164,-1.7734 l 8.3945,-7.168 3.7109,0.77734 c 0.50391,0.10547 1.0195,0.15625 1.5195,0.15625 1.7539,0 3.4648,-0.62109 4.8203,-1.7734 l 134.51,-114.95 z m 17.27,-73.703 -159.07,135.39 -0.0547,-50.305 c 0.46094,0.0859 0.91406,0.14062 1.3672,0.14062 1.7539,0 3.4648,-0.62109 4.8203,-1.7734 l 152.96,-130.66 z"
       id="path67"
       style="fill:#222831;fill-opacity:1" />
  </g>
</svg>
